<svg
xmlns="http://www.w3.org/2000/svg"
xmlns:xlink="http://www.w3.org/1999/xlink"
width="1656"
height="24">

    <!-- Define SVGs -->
    <defs>
        <!-- search -->
        <symbol id="search" viewBox="0 0 24 24" preserveAspectRatio="xMinYMin meet">
            <path d="M0 0h24v24H0z" fill="none"/>
            <path d="M18.65,17.03l-3.67-3.68A5.942,5.942,0,0,0,16,10a6,6,0,1,0-6,6,5.9,5.9,0,0,0,2.72-.65l3.81,3.8a.942.942,0,0,0,1.32,0l.8-.8A.942.942,0,0,0,18.65,17.03Zm-6.99-2.74A4.537,4.537,0,0,1,10,14.6,4.6,4.6,0,1,1,14.6,10a4.5,4.5,0,0,1-.64,2.33A4.6,4.6,0,0,1,11.66,14.29Z"/>
        </symbol>

        <!-- sort -->
        <symbol id="sort" viewBox="0 0 24 24" preserveAspectRatio="xMinYMin meet">
            <path d="M0 0h24v24H0z" fill="none"/>
            <rect x="11" y="6" width="10" height="2"/>
            <rect x="11" y="10" width="7" height="2"/>
            <rect x="11" y="14" width="4" height="2"/>
            <polygon points="8 6 5 6 5 15 3.05 15 6.5 18.45 9.95 15 8 15 8 6"/>
        </symbol>

        <!-- list -->
        <symbol id="list" viewBox="0 0 24 24" preserveAspectRatio="xMinYMin meet">
            <path d="M0 0h24v24H0z" fill="none"/>
            <rect x="4" y="5" width="3" height="3"/>
            <rect x="4" y="10" width="3" height="3"/>
            <rect x="4" y="15" width="3" height="3"/>
            <rect x="8" y="6" width="11" height="1"/>
            <rect x="8" y="11" width="11" height="1"/>
            <rect x="8" y="16" width="11" height="1"/>
        </symbol>

        <!-- grid -->
        <symbol id="grid" viewBox="0 0 24 24" preserveAspectRatio="xMinYMin meet">
            <path d="M0 0h24v24H0z" fill="none"/>
            <rect x="5" y="5" width="3" height="3"/>
            <rect x="10" y="5" width="3" height="3"/>
            <rect x="15" y="5" width="3" height="3"/>
            <rect x="5" y="10" width="3" height="3"/>
            <rect x="10" y="10" width="3" height="3"/>
            <rect x="15" y="10" width="3" height="3"/>
            <rect x="5" y="15" width="3" height="3"/>
            <rect x="10" y="15" width="3" height="3"/>
            <rect x="15" y="15" width="3" height="3"/>
        </symbol>

        <!-- globe -->
        <symbol id="globe" viewBox="0 0 24 24" preserveAspectRatio="xMinYMin meet">
            <path d="M0 0h24v24H0z" fill="none"/>
            <path d="M12,3.7c-.18,0-.37.01-.55.02A8.275,8.275,0,1,0,12,3.7ZM8.891,17.533a.593.593,0,0,1-.882.222A7.019,7.019,0,0,1,5,12a6.9,6.9,0,0,1,.192-1.629.591.591,0,0,1,.979-.286L7.41,11.257a.588.588,0,0,0,.281.147l1.783.379a1.171,1.171,0,0,1,.913.96l.164,1.028a.587.587,0,0,1-.048.343Zm7.921-1.505-1.677-1.979a.588.588,0,0,0-.341-.2l-2.747-.506a.585.585,0,0,1-.479-.561l-.02-.753a1.49,1.49,0,0,0-.583-1.145h0a1.111,1.111,0,0,1-.105-1.674l1.258-1.241a1.368,1.368,0,0,0,.251-1.61L12.126,5.9l.576-.864A7.01,7.01,0,0,1,19,12a6.936,6.936,0,0,1-1.248,3.973A.593.593,0,0,1,16.812,16.028Z"/>
        </symbol>

        <!-- add -->
        <symbol id="add" viewBox="0 0 24 24" preserveAspectRatio="xMinYMin meet">
            <path d="M0 0h24v24H0z" fill="none"/>
            <polygon points="19 10 13 10 13 4 10 4 10 10 4 10 4 13 10 13 10 19 13 19 13 13 19 13 19 10"/>
        </symbol>

        <!-- upload -->
        <symbol id="upload" viewBox="0 0 24 24" preserveAspectRatio="xMinYMin meet">
            <path d="M0 0h24v24H0z" fill="none"/>
            <rect x="5" y="16" width="13" height="3"/>
            <polygon points="10 14.968 12.979 14.968 12.979 10.979 18.008 10.979 11.501 3.991 4.993 10.979 10 10.979 10 14.968"/>
        </symbol>

        <!-- download -->
        <symbol id="download" viewBox="0 0 24 24" preserveAspectRatio="xMinYMin meet">
            <path d="M0 0h24v24H0z" fill="none"/>
            <rect x="5.008" y="16.005" width="12.992" height="2.995"/>
            <polygon points="11.5 15.009 18 8 12.986 8 12.986 4.032 10 4.032 10 8 5 8 11.5 15.009"/>
        </symbol>

        <!-- share -->
        <symbol id="share" viewBox="0 0 24 24" preserveAspectRatio="xMinYMin meet">
            <path d="M0 0h24v24H0z" fill="none"/>
            <path d="M17.333,15.622a2.587,2.587,0,0,0-1.742.684L9.253,12.617a2.458,2.458,0,0,0,0-1.244L15.52,7.719a2.661,2.661,0,1,0-.853-1.946,2.872,2.872,0,0,0,.08.622L8.48,10.048a2.667,2.667,0,1,0,0,3.894l6.329,3.689a2.488,2.488,0,0,0-.071.586,2.6,2.6,0,1,0,2.595-2.595Z"/>
        </symbol>

        <!-- rotate right -->
        <symbol id="rotate_r" viewBox="0 0 24 24" preserveAspectRatio="xMinYMin meet">
            <path d="M0 0h24v24H0z" fill="none"/>
            <path d="M22.013,12,17,17.012,11.988,12H16a4.062,4.062,0,1,0-3,3.871v3.041a7,7,0,0,1-1,.1A7,7,0,1,1,19,12Z"/>
        </symbol>

        <!-- rotate left -->
        <symbol id="rotate_l" viewBox="0 0 24 24" preserveAspectRatio="xMinYMin meet">
            <path d="M0 0h24v24H0z" fill="none"/>
            <path d="M5,12a7,7,0,1,1,7,7.012,7,7,0,0,1-1-.1V15.871A3.992,3.992,0,1,0,8,12h4.011L7,17.012,1.987,12Z"/>
        </symbol>

        <!-- zoom in -->
        <symbol id="zoom_in" viewBox="0 0 24 24" preserveAspectRatio="xMinYMin meet">
            <path d="M0 0h24v24H0z" fill="none"/>
            <path d="M18.65,17.03l-3.67-3.68A5.942,5.942,0,0,0,16,10a6,6,0,1,0-6,6,5.9,5.9,0,0,0,2.72-.65l3.81,3.8a.942.942,0,0,0,1.32,0l.8-.8A.942.942,0,0,0,18.65,17.03Zm-6.99-2.74A4.537,4.537,0,0,1,10,14.6,4.6,4.6,0,1,1,14.6,10a4.5,4.5,0,0,1-.64,2.33A4.6,4.6,0,0,1,11.66,14.29Z"/>
            <polygon points="13 9 11 9 11 7 9 7 9 9 7 9 7 11 9 11 9 13 11 13 11 11 13 11 13 9"/>
        </symbol>

        <!-- zoom out -->
        <symbol id="zoom_out" viewBox="0 0 24 24" preserveAspectRatio="xMinYMin meet">
            <path d="M0 0h24v24H0z" fill="none"/>
            <rect x="7" y="9" width="6" height="2"/>
            <path d="M18.65,17.03l-3.67-3.68A5.942,5.942,0,0,0,16,10a6,6,0,1,0-6,6,5.9,5.9,0,0,0,2.72-.65l3.81,3.8a.942.942,0,0,0,1.32,0l.8-.8A.942.942,0,0,0,18.65,17.03Zm-6.99-2.74A4.537,4.537,0,0,1,10,14.6,4.6,4.6,0,1,1,14.6,10a4.5,4.5,0,0,1-.64,2.33A4.6,4.6,0,0,1,11.66,14.29Z"/>
        </symbol>

        <!-- previous -->
        <symbol id="previous" viewBox="0 0 24 24" preserveAspectRatio="xMinYMin meet">
            <path d="M0 0h24v24H0z" fill="none"/>
            <polygon points="16 5 13 5 7 11 6.5 11.5 7 12 13 18 16 18 9.5 11.5 16 5"/>
        </symbol>

        <!-- next -->
        <symbol id="next" viewBox="0 0 24 24" preserveAspectRatio="xMinYMin meet">
            <path d="M0 0h24v24H0z" fill="none"/>
            <polygon points="8 5 11 5 17 11 17.5 11.5 17 12 11 18 8 18 14.5 11.5 8 5"/>
        </symbol>

        <!-- small -->
        <symbol id="small" viewBox="0 0 24 24" preserveAspectRatio="xMinYMin meet">
            <path d="M0 0h24v24H0z" fill="none"/>
            <path d="M15.129,12.656a6.122,6.122,0,0,0-2.2-1.535,14.466,14.466,0,0,1-1.536-.8,1.624,1.624,0,0,1-.472-.461,1.034,1.034,0,0,1-.149-.558,1.056,1.056,0,0,1,.368-.836A1.552,1.552,0,0,1,12.2,8.144a4.86,4.86,0,0,1,1.176.149,11.479,11.479,0,0,1,1.512.523l.781-1.882a11.532,11.532,0,0,0-1.691-.594,6.694,6.694,0,0,0-1.7-.211A4.266,4.266,0,0,0,9.438,7,2.951,2.951,0,0,0,8.41,9.379a3,3,0,0,0,.313,1.406,3.544,3.544,0,0,0,.836,1.055,6.989,6.989,0,0,0,1.57.945,13.929,13.929,0,0,1,1.48.774,2.085,2.085,0,0,1,.551.5,1,1,0,0,1,.188.6,1.041,1.041,0,0,1-.426.906,2.086,2.086,0,0,1-1.223.3,5.775,5.775,0,0,1-1.465-.211,13.449,13.449,0,0,1-1.957-.726v2.25a7.283,7.283,0,0,0,3.235.687,4.832,4.832,0,0,0,3.1-.891,2.949,2.949,0,0,0,1.114-2.437A3,3,0,0,0,15.129,12.656Z"/>
        </symbol>

        <!-- medium -->
        <symbol id="medium" viewBox="0 0 24 24" preserveAspectRatio="xMinYMin meet">
            <path d="M0 0h24v24H0z" fill="none"/>
            <path d="M12.949,17.711,15.9,8.766h.07q-.095,2.155-.106,2.656c-.007.333-.011.628-.011.883v5.406h2.257V6.289h-3.3l-2.868,8.734H11.9l-2.7-8.734H5.9V17.711H8.059V12.4q0-.913-.149-3.648h.07l2.75,8.961Z"/>
        </symbol>

        <!-- large -->
        <symbol id="large" viewBox="0 0 24 24" preserveAspectRatio="xMinYMin meet">
            <path d="M0 0h24v24H0z" fill="none"/>
            <path d="M15.527,17.711v-2H10.9V6.289H8.473V17.711Z"/>
        </symbol>

        <!-- rss -->
        <symbol id="rss" viewBox="0 0 24 24" preserveAspectRatio="xMinYMin meet">
            <path d="M0 0h24v24H0z" fill="none"/>
            <circle cx="8" cy="16" r="2"/>
            <path d="M7,9a8.262,8.262,0,0,0-1,.06v2.53A5.508,5.508,0,0,1,12.41,18h2.53A8.262,8.262,0,0,0,15,17,8,8,0,0,0,7,9Z"/>
            <path d="M7,5c-.34,0-.67.01-1,.04V7.55c.33-.03.66-.05,1-.05A9.509,9.509,0,0,1,16.5,17c0,.34-.02.67-.05,1h2.51c.03-.33.04-.66.04-1A12,12,0,0,0,7,5Z"/>
        </symbol>

        <!-- filmstrip -->
        <symbol id="filmstrip" viewBox="0 0 24 24" preserveAspectRatio="xMinYMin meet">
            <path d="M0 0h24v24H0z" fill="none"/>
            <rect x="4" y="5" width="11" height="13"/>
            <rect x="17" y="5" width="3" height="3"/>
            <rect x="17" y="10" width="3" height="3"/>
            <rect x="17" y="15" width="3" height="3"/>
        </symbol>

        <!-- image -->
        <symbol id="image" viewBox="0 0 24 24" preserveAspectRatio="xMinYMin meet">
            <path d="M0 0h24v24H0z" fill="none"/>
            <path d="M4,5V18H20V5ZM6,7H18v5l-3,3-3-3L8,16H6Z"/>
            <circle cx="9" cy="10" r="1.687"/>
        </symbol>

        <!-- menu -->
        <symbol id="menu" viewBox="0 0 24 24" preserveAspectRatio="xMinYMin meet">
            <path d="M0 0h24v24H0z" fill="none"/>
            <polygon points="8 10 12 14 16 10 8 10"/>
        </symbol>

        <!-- edit -->
        <symbol id="edit" viewBox="0 0 24 24" preserveAspectRatio="xMinYMin meet">
            <path d="M0 0h24v24H0z" fill="none"/>
            <polygon class="cls-1" points="6.15 14.85 9.17 17.87 8.52 18.52 4 20 5.5 15.5 6.15 14.85"/>
            <rect x="6.848" y="9.875" width="10.324" height="4.271" transform="translate(-4.975 12.01) rotate(-44.999)"/>
            <path d="M19.21,7.82,17.87,9.17,14.85,6.15,16.2,4.8a1.008,1.008,0,0,1,1.42,0l1.59,1.6A.99.99,0,0,1,19.21,7.82Z"/>
        </symbol>

        <!-- comments -->
        <symbol id="comments" viewBox="0 0 24 24" preserveAspectRatio="xMinYMin meet">
            <path d="M0 0h24v24H0z" fill="none"/>
            <path d="M10.04,13a2.737,2.737,0,0,0-.04.5,3.593,3.593,0,0,0,.32,1.49.091.091,0,0,0,.03.07L8,18V14.77C5.67,14.22,4,12.74,4,11c0-2.21,2.69-4,6-4a6.93,6.93,0,0,1,5.2,2.01C12.51,9.13,10.33,10.83,10.04,13Z"/>
            <path d="M20,13.5a3.666,3.666,0,0,1-3,3.29V19l-2.03-2.03C12.73,16.77,11,15.29,11,13.5c0-1.93,2.01-3.5,4.5-3.5S20,11.57,20,13.5Z"/>
        </symbol>

        <!-- book -->
        <symbol id="book" viewBox="0 0 24 24" preserveAspectRatio="xMinYMin meet">
            <path d="M0 0h24v24H0z" fill="none"/>
            <path d="M12,18a4.38,4.38,0,0,0-3-1H4v1H9a4.072,4.072,0,0,1,3,1.16A4.072,4.072,0,0,1,15,18h5V17H15A4.38,4.38,0,0,0,12,18Z"/>
            <path d="M18.25,5h-4.5A1.746,1.746,0,0,0,12,6.75,1.746,1.746,0,0,0,10.25,5H5.75A1.746,1.746,0,0,0,4,6.75V16H9a4.38,4.38,0,0,1,3,1,4.38,4.38,0,0,1,3-1h5V6.75A1.746,1.746,0,0,0,18.25,5Z"/>
        </symbol>

        <!-- folder new -->
        <symbol id="folder_new" viewBox="0 0 24 24" preserveAspectRatio="xMinYMin meet">
            <path d="M0 0h24v24H0z" fill="none"/>
            <path d="M4,9V19H20V9Zm11,6H13v2H11V15H9V13h2V11h2v2h2Z"/>
            <polygon points="12 6 12 5 5 5 5 8 11 8 12 8 19 8 19 6 12 6"/>
        </symbol>

        <!-- sidebar open -->
        <symbol id="sidebar_open" viewBox="0 0 24 24" preserveAspectRatio="xMinYMin meet">
            <path d="M0 0h24v24H0z" fill="none"/>
            <polygon points="19.006 11.5 14 6.995 14 10 7.999 10 7.999 4 5 4 5 19 7.999 19 7.999 13 14 13 14 16.005 19.006 11.5"/>
        </symbol>

        <!-- sidebar close -->
        <symbol id="sidebar_close" viewBox="0 0 24 24" preserveAspectRatio="xMinYMin meet">
            <path d="M0 0h24v24H0z" fill="none"/>
            <polygon points="4.994 11.5 10 6.995 10 10 16.001 10 16.001 4 19 4 19 19 16.001 19 16.001 13 10 13 10 16.005 4.994 11.5"/>
        </symbol>

        <!-- file -->
        <symbol id="file" viewBox="0 0 24 24" preserveAspectRatio="xMinYMin meet">
            <path d="M0 0h24v24H0z" fill="none"/>
            <polygon points="12 4 6 4 6 20 11 20 12 20 18 20 18 10 12 10 12 4"/>
            <path d="M13,4V9h5Z"/>
        </symbol>

        <!-- question -->
        <symbol id="question" viewBox="0 0 24 24" preserveAspectRatio="xMinYMin meet">
            <path d="M0 0h24v24H0z" fill="none"/>
            <path d="M13.086,14.236V13.7a1.173,1.173,0,0,1,.279-.782,7.275,7.275,0,0,1,1.38-1.045,6.042,6.042,0,0,0,1.9-1.758,4.006,4.006,0,0,0,.593-2.2,3.351,3.351,0,0,0-1.333-2.8,5.879,5.879,0,0,0-3.674-1.029A10.863,10.863,0,0,0,6.767,5.575L8.226,8.431a8.176,8.176,0,0,1,3.706-1.124,1.884,1.884,0,0,1,1.039.258.792.792,0,0,1,.4.7A1.458,1.458,0,0,1,13,9.249a5.555,5.555,0,0,1-1.223.966,4.387,4.387,0,0,0-1.49,1.381,3.35,3.35,0,0,0-.42,1.737v.9ZM10,19.4a2.374,2.374,0,0,0,1.627.52,2.3,2.3,0,0,0,1.591-.525A1.893,1.893,0,0,0,13.8,17.91a1.945,1.945,0,0,0-.561-1.485,2.263,2.263,0,0,0-1.612-.53,2.336,2.336,0,0,0-1.653.525,1.938,1.938,0,0,0-.562,1.49A1.879,1.879,0,0,0,10,19.4Z"/>
        </symbol>

        <!-- settings -->
        <symbol id="settings" viewBox="0 0 24 24" preserveAspectRatio="xMinYMin meet">
            <path d="M0 0h24v24H0z" fill="none"/>
            <path d="M19,10H17.761a6.107,6.107,0,0,0-1.15-1.987l.621-1.075a1,1,0,0,0-.366-1.366l-1.732-1a1,1,0,0,0-1.366.366l-.624,1.08a6.066,6.066,0,0,0-2.287,0l-.625-1.081a1,1,0,0,0-1.366-.366l-1.732,1a1,1,0,0,0-.366,1.366l.623,1.079a6.11,6.11,0,0,0-.672.939A6.175,6.175,0,0,0,6.244,10H5a1,1,0,0,0-1,1v2a1,1,0,0,0,1,1H6.242a6.1,6.1,0,0,0,1.145,1.989l-.619,1.073a1,1,0,0,0,.366,1.366l1.732,1a1,1,0,0,0,1.366-.366l.617-1.068a6.083,6.083,0,0,0,2.3,0l.617,1.068a1,1,0,0,0,1.366.366l1.732-1a1,1,0,0,0,.366-1.366L16.617,16a5.962,5.962,0,0,0,1.151-2H19a1,1,0,0,0,1-1V11A1,1,0,0,0,19,10Zm-7,4.136A2.136,2.136,0,1,1,14.136,12,2.136,2.136,0,0,1,12,14.136Z"/>
        </symbol>

        <!-- save -->
        <symbol id="save" viewBox="0 0 24 24" preserveAspectRatio="xMinYMin meet">
            <path d="M0 0h24v24H0z" fill="none"/>
            <path d="M19,7H15V8h2.41l-1.7,1.71-3,3-.71.7-.71-.7-3-3L6.59,8H9V7H5L4,15H20Z"/>
            <path d="M20,16H4v.5A2.5,2.5,0,0,0,6.5,19h11A2.5,2.5,0,0,0,20,16.5ZM7.5,18.3a.8.8,0,1,1,.8-.8A.8.8,0,0,1,7.5,18.3Z"/>
            <path d="M15,9l-3,3L9,9h1V3h4V9Z"/>
        </symbol>

        <!-- insert -->
        <symbol id="insert" viewBox="0 0 24 24" preserveAspectRatio="xMinYMin meet">
            <path d="M0 0h24v24H0z" fill="none"/>
            <path d="M10,9v1h1v1H4v9h9V13h1v1h1V9Zm1,9H6V13h5Z"/>
            <polygon points="19 4 16 4 11 4 11 8 16 8 16 13 20 13 20 4 19 4"/>
        </symbol>

        <!-- upgrade -->
        <symbol id="upgrade" viewBox="0 0 24 24" preserveAspectRatio="xMinYMin meet">
            <path d="M0 0h24v24H0z" fill="none"/>
            <polygon points="16.01 9 15 9 15 9.49 19.004 11.5 11.969 15.031 12 15 5 11.5 9 9.5 9 9 8 9 4 11 4 12 4 16 12 20 20 16 20 12 20 11 16.01 9"/>
            <polygon points="12 4 8 8 10 8 10 12 14 12 14 8 16 8 12 4"/>
        </symbol>

        <!-- help -->
        <symbol id="help" viewBox="0 0 24 24" preserveAspectRatio="xMinYMin meet">
            <path d="M0 0h24v24H0z" fill="none"/>
            <path d="M18.893,8.061a7.883,7.883,0,0,1,.78,1.9l.005.017a7.924,7.924,0,0,1,.2,1v0a7.971,7.971,0,0,1,0,2.024v.009a7.787,7.787,0,0,1-5.852,6.663l-.005,0a8.174,8.174,0,0,1-1,.2h-.009a8.01,8.01,0,0,1-2.023,0h0a7.8,7.8,0,0,1-1-.2l-.014,0a7.866,7.866,0,0,1-1.906-.781h0a7.873,7.873,0,0,1-1.7-1.257A7.862,7.862,0,0,1,5.1,15.929h0a7.893,7.893,0,0,1-.976-2.916v-.006a7.96,7.96,0,0,1,.2-3.026l0-.012a7.907,7.907,0,0,1,.781-1.906h0a7.855,7.855,0,0,1,1.257-1.7A7.9,7.9,0,0,1,9.977,4.323h0a7.963,7.963,0,0,1,3.03-.2h0a7.626,7.626,0,0,1,5.879,3.935Zm-.82,7.44c.012-.021.017-.043.029-.064l-2.36-1.469c-.025.048-.039.1-.066.146a4.2,4.2,0,0,1-1.706,1.625l1.458,2.342A6.944,6.944,0,0,0,18.073,15.5ZM11.21,9.049a3.049,3.049,0,1,0,3.734,2.156A3.051,3.051,0,0,0,11.21,9.049ZM8.5,18.067c.02.012.041.017.061.028L10.03,15.73c-.046-.025-.1-.038-.143-.065a4.194,4.194,0,0,1-1.623-1.7L5.917,15.422A6.93,6.93,0,0,0,8.5,18.067ZM5.931,8.491c-.012.022-.018.045-.03.067l2.366,1.473c.027-.051.041-.1.07-.154A4.2,4.2,0,0,1,10.03,8.26L8.57,5.914A6.943,6.943,0,0,0,5.931,8.491Zm9.576-2.566c-.023-.013-.047-.018-.07-.031l-1.47,2.361c.052.027.107.042.158.071a4.2,4.2,0,0,1,1.618,1.7l2.341-1.457A6.943,6.943,0,0,0,15.507,5.925Z"/>
        </symbol>

        <!-- folder -->
        <symbol id="folder" viewBox="0 0 24 24" preserveAspectRatio="xMinYMin meet">
            <path d="M0 0h24v24H0z" fill="none"/>
            <path d="M4,9V19H20V9Z"/>
            <polygon points="12 6 12 5 5 5 5 8 11 8 12 8 19 8 19 6 12 6"/>
        </symbol>

        <!-- brush -->
        <symbol id="brush" viewBox="0 0 24 24" preserveAspectRatio="xMinYMin meet">
            <path d="M0 0h24v24H0z" fill="none"/>
            <path d="M13.651,13.81c-.719-1.549-1.552-1.973-1.949-2,1.2-2.793,5.336-5.542,8.136-6.068C20.921,5.6,16.322,12.382,13.651,13.81Zm-.709.25a20.624,20.624,0,0,1-1.84,1.062,1.957,1.957,0,0,1,.049,1.236,2.534,2.534,0,0,1-.82,1.029c-1.06.557-2.609,1.44-6.331.364,3.1-.569,2.479-2.93,4.075-3.616A3.431,3.431,0,0,1,10.057,14c.41-.553,1.039-1.418,1.2-1.693A2.121,2.121,0,0,1,12.942,14.06Z"/>
        </symbol>

        <!-- phone -->
        <symbol id="phone" viewBox="0 0 24 24" preserveAspectRatio="xMinYMin meet">
            <path d="M0 0h24v24H0z" fill="none"/>
            <path d="M7,4V20h9V4Zm4.5,14.39a.89.89,0,1,1,.89-.89A.892.892,0,0,1,11.5,18.39ZM15,15H8V6h7Z"/>
        </symbol>

        <!-- lock -->
        <symbol id="lock" viewBox="0 0 24 24" preserveAspectRatio="xMinYMin meet">
            <path d="M0 0h24v24H0z" fill="none"/>
            <path d="M16.4,11H16V8A4,4,0,0,0,8,8v3H7.6A1.6,1.6,0,0,0,6,12.6v5.8A1.6,1.6,0,0,0,7.6,20h8.8A1.6,1.6,0,0,0,18,18.4V12.6A1.6,1.6,0,0,0,16.4,11ZM13,17H11V14h2Zm-3-6V8a2,2,0,0,1,4,0v3Z"/>
        </symbol>

        <!-- link -->
        <symbol id="link" viewBox="0 0 24 24" preserveAspectRatio="xMinYMin meet">
            <path d="M0 0h24v24H0z" fill="none"/>
            <path d="M16,6H13V7.9h3a4.1,4.1,0,1,1,0,8.2H13V18h3A6,6,0,0,0,16,6M3.9,12A4.1,4.1,0,0,1,8,7.9h3V6H8A6,6,0,0,0,8,18h3V16.1H8A4.106,4.106,0,0,1,3.9,12M8,13h8V11H8Z"/>
        </symbol>

        <!-- logout -->
        <symbol id="logout" viewBox="0 0 24 24" preserveAspectRatio="xMinYMin meet">
            <path d="M0 0h24v24H0z" fill="none"/>
            <polygon points="14 8 14 4 5 4 5 16 10 19 10 16 14 16 14 12 13 12 13 15 10 15 10 7 6.667 5 13 5 13 8 14 8"/>
            <polygon points="20 10 16 6 16 9 11 9 11 11 16 11 16 14 20 10"/>
        </symbol>

        <!-- pie chart -->
        <symbol id="pie_chart" viewBox="0 0 24 24" preserveAspectRatio="xMinYMin meet">
            <path d="M0 0h24v24H0z" fill="none"/>
            <path d="M20,12H12V4A8,8,0,0,1,20,12Z"/>
            <path d="M11,13h8.94A8,8,0,1,1,11,4.06Z"/>
        </symbol>

        <!-- follow -->
        <symbol id="follow" viewBox="0 0 24 24" preserveAspectRatio="xMinYMin meet">
            <path d="M0 0h24v24H0z" fill="none"/>
            <path d="M15.07,4.41A9.877,9.877,0,0,0,8.1,7.11s2.319.56,2.57,1.59c.207.846-2.334.79-3.85,1.03a20.244,20.244,0,0,0-5.24,1.46s6.25,1.04,6.25,2.64c0,1.08-2.13.91-2.13.91a11.665,11.665,0,0,0,9.37,4.57,7.45,7.45,0,0,0,0-14.9ZM18,13H16v2H14V13H12V11h2V9h2v2h2Z"/>
        </symbol>

        <!-- trash -->
        <symbol id="trash" viewBox="0 0 24 24" preserveAspectRatio="xMinYMin meet">
            <path d="M0 0h24v24H0z" fill="none"/>
            <path d="M6,9v9.34A1.656,1.656,0,0,0,7.66,20h7.68A1.656,1.656,0,0,0,17,18.34V9Zm3,9H8V11H9Zm2,0H10V11h1Zm2,0H12V11h1Zm2,0H14V11h1Z"/>
            <path d="M16.655,6H15V5.27A1.269,1.269,0,0,0,13.73,4H9.27A1.27,1.27,0,0,0,8,5.27V6H6.345A1.345,1.345,0,0,0,5,7.345V8H18V7.345A1.345,1.345,0,0,0,16.655,6ZM9,5.27A.27.27,0,0,1,9.27,5h4.46a.27.27,0,0,1,.27.27V6H9Z"/>
        </symbol>

        <!-- amazon -->
        <symbol id="amazon" viewBox="0 0 24 24" preserveAspectRatio="xMinYMin meet">
            <path d="M0 0h24v24H0z" fill="none"/>
            <path d="M16.421,13.634l-.507-.782a1.485,1.485,0,0,1-.23-.806V8.731c0-1.312.092-4.12-3.66-4.12-3.061,0-4,1.634-4.281,2.624a.676.676,0,0,0,.575.852L9.492,8.2a.667.667,0,0,0,.668-.368,1.837,1.837,0,0,1,1.864-1.2c.484,0,1.151.207,1.151.782V8.685h0a.315.315,0,0,1-.322.323H11.7c-.875,0-4.189.437-4.189,3.775s3.5,2.969,3.729,2.9a4.428,4.428,0,0,0,2.025-1.128.3.3,0,0,1,.437.023l.622.76a.669.669,0,0,0,.967.069l1.013-.944A.667.667,0,0,0,16.421,13.634Zm-5.087-.184c-1.174,0-1.151-1.059-.875-1.565A2.9,2.9,0,0,1,13.2,10.5l.023.875a1.967,1.967,0,0,1-.829,1.657A2.043,2.043,0,0,1,11.334,13.45Z"/>
            <g>
                <path d="M3.553,16.466a.21.21,0,0,1,.231-.346,17.666,17.666,0,0,0,7.55,1.911,23.389,23.389,0,0,0,7.319-1.243.214.214,0,0,1,.208.368,11.541,11.541,0,0,1-7.435,2.233A11.547,11.547,0,0,1,3.553,16.466Z"/>
                <path d="M17.226,16.005a3.368,3.368,0,0,1,3.039-.391.369.369,0,0,1,.253.322,3.876,3.876,0,0,1-1.105,2.716.1.1,0,0,1-.161-.092,8.67,8.67,0,0,0,.414-2.187,7.3,7.3,0,0,0-2.371-.23A.078.078,0,0,1,17.226,16.005Z"/>
            </g>
        </symbol>

        <!-- file new -->
        <symbol id="file_new" viewBox="0 0 24 24" preserveAspectRatio="xMinYMin meet">
            <path d="M0 0h24v24H0z" fill="none"/>
            <path d="M12,10V4H6V20H18V10Zm3,6H13v2H11V16H9V14h2V12h2v2h2Z"/>
            <path d="M13,4V9h5Z"/>
        </symbol>

        <!-- headphones -->
        <symbol id="headphones" viewBox="0 0 24 24" preserveAspectRatio="xMinYMin meet">
            <path d="M0 0h24v24H0z" fill="none"/>
            <path d="M19.077,14.487H17.292a5.506,5.506,0,1,0-10.553,0H4.923a7.507,7.507,0,1,1,14.154,0ZM8.505,13.5a1.521,1.521,0,0,1,1.007.425v5.157a1.52,1.52,0,0,1-1.007.424c-1.1,0-2-1.344-2-3S7.4,13.5,8.505,13.5Zm6.012.409a1.528,1.528,0,0,1,.994-.409c1.11,0,2.01,1.345,2.01,3s-.9,3-2.01,3a1.527,1.527,0,0,1-.994-.408Z"/>
        </symbol>

        <!-- play -->
        <symbol id="play" viewBox="0 0 24 24" preserveAspectRatio="xMinYMin meet">
            <path d="M0 0h24v24H0z" fill="none"/>
            <path d="M12,4a8,8,0,1,0,8,8A8,8,0,0,0,12,4ZM11,16V8l4,4Z"/>
        </symbol>

        <!-- info -->
        <symbol id="info" viewBox="0 0 24 24" preserveAspectRatio="xMinYMin meet">
            <path d="M0 0h24v24H0z" fill="none"/>
            <path d="M12,4a8,8,0,1,0,8,8A8,8,0,0,0,12,4Zm1,13H11V11h2Zm0-8H11V7h2Z"/>
        </symbol>

        <!-- user -->
        <symbol id="user" viewBox="0 0 24 24" preserveAspectRatio="xMinYMin meet">
            <path d="M0 0h24v24H0z" fill="none"/>
            <path d="M14.728,14.608c-.543-.07-.769-.844-.769-.844a5.923,5.923,0,0,0,1.2-2.7c.719,0,1.163-2.345.444-2.345.03-.643.474-4.669-3.6-4.669S8.366,8.077,8.4,8.72c-.945,0-.275,2.345.444,2.345a5.923,5.923,0,0,0,1.2,2.7s-.217.774-.76.844a13.449,13.449,0,0,0-4.744,2.183,3.645,3.645,0,0,0-1.419,3.158H20.887a3.663,3.663,0,0,0-1.444-3.175A13.434,13.434,0,0,0,14.728,14.608Z"/>
        </symbol>

        <!-- document -->
        <symbol id="document" viewBox="0 0 24 24" preserveAspectRatio="xMinYMin meet">
            <path d="M0 0h24v24H0z" fill="none"/>
            <path d="M12,10V4H6V20H18V10Zm4,7H8V16h8Zm0-2H8V14h8Zm0-2H8V12h8Z"/>
            <path d="M13,4V9h5Z"/>
        </symbol>

        <!-- video camera -->
        <symbol id="video_camera" viewBox="0 0 24 24" preserveAspectRatio="xMinYMin meet">
            <path d="M0 0h24v24H0z" fill="none"/>
            <circle cx="12.5" cy="8.5" r="2.5"/>
            <circle cx="6.5" cy="8.5" r="2.5"/>
            <path d="M15,14V11H4v7H15V15l4,3V11Zm-1-1H11V12h3Z"/>
        </symbol>

        <!-- mail -->
        <symbol id="mail" viewBox="0 0 24 24" preserveAspectRatio="xMinYMin meet">
            <path d="M0 0h24v24H0z" fill="none"/>
            <path d="M11.02,11.75,5.3,6.03A2.186,2.186,0,0,1,5.66,6H18.34a2.186,2.186,0,0,1,.36.03l-5.72,5.72a1.376,1.376,0,0,1-1.96,0Z"/>
            <path d="M20,7.66v8.68A1.656,1.656,0,0,1,18.34,18H5.66A1.656,1.656,0,0,1,4,16.34V7.66a1.651,1.651,0,0,1,.42-1.1l5.9,5.9a2.366,2.366,0,0,0,3.36,0l5.9-5.9A1.651,1.651,0,0,1,20,7.66Z"/>
        </symbol>

        <!-- clock -->
        <symbol id="clock" viewBox="0 0 24 24" preserveAspectRatio="xMinYMin meet">
            <path d="M0 0h24v24H0z" fill="none"/>
            <path d="M12,20a8,8,0,1,1,8-8A8,8,0,0,1,12,20ZM12,6a6,6,0,1,0,6,6A6,6,0,0,0,12,6Zm2,8H12a1,1,0,0,1-1-1V9a1,1,0,0,1,2,0v3h1a1,1,0,0,1,0,2Z"/>
        </symbol>

        <!-- filedrop -->
        <symbol id="filedrop" viewBox="0 0 24 24" preserveAspectRatio="xMinYMin meet">
            <path d="M0 0h24v24H0z" fill="none"/>
            <path d="M12,12,5,9v7l7,3,7-3V9Zm6,3.341-5,2.142V12.659l5-2.142Z"/>
            <polygon points="14 7 14 4 10 4 10 7 8 7 12 11 16 7 14 7"/>
        </symbol>

        <!-- move -->
        <symbol id="move" viewBox="0 0 24 24" preserveAspectRatio="xMinYMin meet">
            <path d="M0 0h24v24H0z" fill="none"/>
            <path d="M19,12s-3.037-2.963-3-3v2H13V8h2L12,5S9.038,8.037,9,8h2v3H8V9L5,12s3.037,2.962,3,3V13h3v3H9l3,3s.439-.45.98-1H13v-.021c.864-.878,1.977-2,2-1.979H13V13h3v2Z"/>
        </symbol>

        <!-- description -->
        <symbol id="description" viewBox="0 0 24 24" preserveAspectRatio="xMinYMin meet">
            <path d="M0 0h24v24H0z" fill="none"/>
            <path d="M17,5V8H13V5H11V8H7V5H5V19H19V5ZM16,16H8V15h8Zm0-2H8V13h8Zm0-2H8V11h8Z"/>
            <rect x="14" y="3" width="2" height="4"/>
            <rect x="8" y="3" width="2" height="4"/>
        </symbol>

        <!-- folder copy -->
        <symbol id="folder_copy" viewBox="0 0 24 24" preserveAspectRatio="xMinYMin meet">
            <path d="M0 0h24v24H0z" fill="none"/>
            <rect x="6" y="11" width="14" height="8"/>
            <polygon points="6 10 6 8 5 8 4 8 3 8 3 17 5 17 5 10 6 10"/>
            <polygon points="7 10 11 10 12 10 19 10 19 8 12 8 12 7 7 7 7 10"/>
            <polygon points="6 6 9 6 12 6 12 7 16 7 16 5 13 5 12 5 9 5 9 4 6 4 5 4 4 4 4 5 4 6 4 7 6 7 6 6"/>
        </symbol>

        <!-- folder remove -->
        <symbol id="folder_remove" viewBox="0 0 24 24" preserveAspectRatio="xMinYMin meet">
            <path d="M0 0h24v24H0z" fill="none"/>
            <path d="M4,9V19H20V9Zm11,6H9V13h6Z"/>
            <polygon points="12 8 19 8 19 6 12 6 12 5 5 5 5 8 11 8 12 8"/>
        </symbol>

        <!-- view -->
        <symbol id="view" viewBox="0 0 24 24" preserveAspectRatio="xMinYMin meet">
            <path d="M0 0h24v24H0z" fill="none"/>
            <path d="M12,6.5C6.75,6.5,2.5,12,2.5,12s4.25,5.5,9.5,5.5S21.5,12,21.5,12,17.25,6.5,12,6.5Zm0,8A2.5,2.5,0,1,1,14.5,12,2.5,2.5,0,0,1,12,14.5Z"/>
        </symbol>

        <!-- file copy -->
        <symbol id="file_copy" viewBox="0 0 24 24" preserveAspectRatio="xMinYMin meet">
            <path d="M0 0h24v24H0z" fill="none"/>
            <polygon points="10 7 10 3 5 3 5 6 5 7 5 15 8 15 8 7 10 7"/>
            <polygon points="14 8 9 8 9 20 14 20 19 20 19 13 14 13 14 8"/>
            <path d="M19,12,15,8c.016-.016,0,4,0,4Z"/>
            <path d="M15,7,11,3c.016-.016,0,4,0,4Z"/>
        </symbol>

        <!-- update -->
        <symbol id="update" viewBox="0 0 24 24" preserveAspectRatio="xMinYMin meet">
            <path d="M0 0h24v24H0z" fill="none"/>
            <path d="M6,11.5A5.51,5.51,0,0,1,11.5,6a5.33,5.33,0,0,1,1.5.21V4.15A7.41,7.41,0,0,0,11.5,4,7.5,7.5,0,0,0,4,11.5c0,.167.014.334.025.5H1l4,7,4-7H6.034C6.019,11.834,6,11.67,6,11.5Z"/>
            <path d="M22,11,18,4l-4,7h2.966c.015.166.034.33.034.5A5.51,5.51,0,0,1,11.5,17a5.33,5.33,0,0,1-1.5-.21v2.06a7.41,7.41,0,0,0,1.5.15A7.5,7.5,0,0,0,19,11.5c0-.167-.014-.334-.025-.5Z"/>
        </symbol>

        <!-- users -->
        <symbol id="users" viewBox="0 0 24 24" preserveAspectRatio="xMinYMin meet">
            <path d="M0 0h24v24H0z" fill="none"/>
            <path d="M12.15,13.13a5.133,5.133,0,0,0-1.43-.49c-.35-.04-.49-.53-.49-.53a3.637,3.637,0,0,0,.75-1.7c.46,0,.74-1.47.28-1.47C11.28,8.53,11.56,6,9,6S6.71,8.53,6.73,8.94c-.59,0-.17,1.47.28,1.47a3.754,3.754,0,0,0,.75,1.7s-.13.49-.47.53A8.376,8.376,0,0,0,4.3,14.01,2.318,2.318,0,0,0,3.41,16H8.95a2.782,2.782,0,0,1,.79-.81,10.757,10.757,0,0,1,2.68-1.36A5.118,5.118,0,0,1,12.15,13.13Z"/>
            <path d="M16.716,14.641c-.342-.044-.484-.531-.484-.531a3.729,3.729,0,0,0,.753-1.7c.452,0,.731-1.476.279-1.476C17.283,10.532,17.562,8,15,8s-2.284,2.532-2.265,2.936c-.6,0-.173,1.476.279,1.476a3.729,3.729,0,0,0,.753,1.7s-.137.487-.479.531A8.455,8.455,0,0,0,10.3,16.014,2.29,2.29,0,0,0,9.41,18H20.59a2.3,2.3,0,0,0-.908-2A8.431,8.431,0,0,0,16.716,14.641Z"/>
        </symbol>

        <!-- edit file -->
        <symbol id="edit_file" viewBox="0 0 24 24" preserveAspectRatio="xMinYMin meet">
            <path d="M0 0h24v24H0z" fill="none"/>
            <polygon points="10.75 18.23 16.57 12.41 17.28 11.7 18 10.98 18 10 12 10 12 4 6 4 6 20 10.15 20 10.67 18.45 10.75 18.23"/>
            <polygon points="18 20 18 18.05 16.05 20 18 20"/>
            <path d="M13,4V9h5Z"/>
            <path d="M20.9,12.493l-.877-.877a.876.876,0,0,0-1.245,0l-.792.792,2.122,2.121.792-.791A.876.876,0,0,0,20.9,12.493Z"/>
            <polygon points="11.622 18.772 10.54 21.975 13.743 20.893 19.4 15.237 17.278 13.115 11.622 18.772"/>
        </symbol>

        <!-- rename -->
        <symbol id="rename" viewBox="0 0 24 24" preserveAspectRatio="xMinYMin meet">
            <path d="M0 0h24v24H0z" fill="none"/>
            <path d="M16.716,6.432h-2.6l-2.678,8.762h2.054l.624-2.249h2.509l.677,2.249h2.132ZM14.4,11.463l.52-1.859c.143-.507.273-1.17.4-1.69h.027c.129.52.286,1.17.441,1.69l.546,1.859Z"/>
            <polygon points="10 6 13 6 13 5 10 5 8 5 5 5 5 6 8 6 8 17 5 17 5 18 8 18 10 18 13 18 13 17 10 17 10 6"/>
        </symbol>

        <!-- restore -->
        <symbol id="restore" viewBox="0 0 24 24" preserveAspectRatio="xMinYMin meet">
            <path d="M0 0h24v24H0z" fill="none"/>
            <path d="M13,4a7.993,7.993,0,0,0-7.931,7H2l4,7,4-7H7.09A6,6,0,1,1,13,18a5.857,5.857,0,0,1-3-.81v2.23A8.093,8.093,0,0,0,13,20,8,8,0,0,0,13,4Z"/>
            <path d="M13,8a1,1,0,0,0-1,1v4a1,1,0,0,0,1,1h2a1,1,0,0,0,0-2H14V9A1,1,0,0,0,13,8Z"/>
        </symbol>

        <!-- edit avatar -->
        <symbol id="edit_avatar" viewBox="0 0 24 24" preserveAspectRatio="xMinYMin meet">
            <path d="M0 0h24v24H0z" fill="none"/>
            <path d="M15.6,8.72c.03-.64.47-4.67-3.6-4.67S8.37,8.08,8.4,8.72c-.95,0-.28,2.35.44,2.35a5.888,5.888,0,0,0,1.2,2.69s-.22.78-.76.85a13.4,13.4,0,0,0-4.75,2.18,3.652,3.652,0,0,0-1.42,3.16h7.72l.84-2.5.08-.22,2.72-2.72a1.457,1.457,0,0,1-.51-.75,5.888,5.888,0,0,0,1.2-2.69C15.87,11.07,16.32,8.72,15.6,8.72Zm3.84,8.05c-.03-.02-.07-.04-.1-.06L16.1,19.95h4.79A3.665,3.665,0,0,0,19.44,16.77Z"/>
            <path d="M21.9,11.493l-.877-.877a.876.876,0,0,0-1.245,0l-.792.792,2.122,2.121.792-.791A.876.876,0,0,0,21.9,11.493Z"/>
            <polygon points="12.622 17.772 11.54 20.975 14.743 19.893 20.4 14.237 18.278 12.115 12.622 17.772"/>
        </symbol>

        <!-- unfollow -->
        <symbol id="unfollow" viewBox="0 0 24 24" preserveAspectRatio="xMinYMin meet">
            <path d="M0 0h24v24H0z" fill="none"/>
            <path d="M15.07,4.41A9.877,9.877,0,0,0,8.1,7.11s2.319.56,2.57,1.59c.207.846-2.334.79-3.85,1.03a20.2,20.2,0,0,0-5.24,1.46s6.25,1.04,6.25,2.64c0,1.08-2.13.91-2.13.91a11.665,11.665,0,0,0,9.37,4.57,7.45,7.45,0,0,0,0-14.9ZM18,13H12V11h6Z"/>
        </symbol>

        <!-- arrow right -->
        <symbol id="arrow_right" viewBox="0 0 24 24" preserveAspectRatio="xMinYMin meet">
            <path d="M0 0h24v24H0z" fill="none"/>
            <path d="M4,11V13H16L10.5,18.5L11.92,19.92L19.84,12L11.92,4.08L10.5,5.5L16,11H4Z" />
        </symbol>
    </defs>

    <!-- Set SVG sprite position and color -->
    <use xlink:href="#search"           x="0"    y="0" fill="#fff" />
    <use xlink:href="#sort"             x="24"   y="0" fill="#fff" />
    <use xlink:href="#list"             x="48"   y="0" fill="#fff" />
    <use xlink:href="#grid"             x="72"   y="0" fill="#fff" />
    <use xlink:href="#globe"            x="96"   y="0" fill="#fff" />
    <use xlink:href="#add"              x="120"  y="0" fill="#fff" />
    <use xlink:href="#upload"           x="144"  y="0" fill="#fff" />
    <use xlink:href="#download"         x="168"  y="0" fill="#fff" />
    <use xlink:href="#share"            x="192"  y="0" fill="#fff" />
    <use xlink:href="#rotate_r"         x="216"  y="0" fill="#fff" />
    <use xlink:href="#rotate_l"         x="240"  y="0" fill="#fff" />
    <use xlink:href="#zoom_in"          x="264"  y="0" fill="#fff" />
    <use xlink:href="#zoom_out"         x="288"  y="0" fill="#fff" />
    <use xlink:href="#previous"         x="312"  y="0" fill="#fff" />
    <use xlink:href="#next"             x="336"  y="0" fill="#fff" />
    <use xlink:href="#small"            x="360"  y="0" fill="#fff" />
    <use xlink:href="#medium"           x="384"  y="0" fill="#fff" />
    <use xlink:href="#large"            x="408"  y="0" fill="#fff" />
    <use xlink:href="#rss"              x="432"  y="0" fill="#fff" />
    <use xlink:href="#filmstrip"        x="456"  y="0" fill="#fff" />
    <use xlink:href="#image"            x="480"  y="0" fill="#fff" />
    <use xlink:href="#menu"             x="504"  y="0" fill="#fff" />
    <use xlink:href="#edit"             x="528"  y="0" fill="#fff" />
    <use xlink:href="#comments"         x="552"  y="0" fill="#fff" />
    <use xlink:href="#book"             x="576"  y="0" fill="#fff" />
    <use xlink:href="#folder_new"       x="600"  y="0" fill="#fff" />
    <use xlink:href="#sidebar_open"     x="624"  y="0" fill="#fff" />
    <use xlink:href="#sidebar_close"    x="648"  y="0" fill="#fff" />
    <use xlink:href="#file"             x="672"  y="0" fill="#fff" />
    <use xlink:href="#question"         x="696"  y="0" fill="#fff" />
    <use xlink:href="#settings"         x="720"  y="0" fill="#fff" />
    <use xlink:href="#save"             x="744"  y="0" fill="#fff" />
    <use xlink:href="#insert"           x="768"  y="0" fill="#fff" />
    <use xlink:href="#upgrade"          x="792"  y="0" fill="#fff" />
    <use xlink:href="#help"             x="816"  y="0" fill="#fff" />
    <use xlink:href="#folder"           x="840"  y="0" fill="#fff" />
    <use xlink:href="#brush"            x="864"  y="0" fill="#fff" />
    <use xlink:href="#phone"            x="888"  y="0" fill="#fff" />
    <use xlink:href="#lock"             x="912"  y="0" fill="#fff" />
    <use xlink:href="#link"             x="936"  y="0" fill="#fff" />
    <use xlink:href="#logout"           x="960"  y="0" fill="#fff" />
    <use xlink:href="#pie_chart"        x="984"  y="0" fill="#fff" />
    <use xlink:href="#follow"           x="1008" y="0" fill="#fff" />
    <use xlink:href="#trash"            x="1032" y="0" fill="#fff" />
    <use xlink:href="#amazon"           x="1056" y="0" fill="#fff" />
    <use xlink:href="#file_new"         x="1080" y="0" fill="#fff" />
    <use xlink:href="#headphones"       x="1104" y="0" fill="#fff" />
    <use xlink:href="#play"             x="1128" y="0" fill="#fff" />
    <use xlink:href="#info"             x="1152" y="0" fill="#fff" />
    <use xlink:href="#user"             x="1176" y="0" fill="#fff" />
    <use xlink:href="#document"         x="1200" y="0" fill="#fff" />
    <use xlink:href="#video_camera"     x="1224" y="0" fill="#fff" />
    <use xlink:href="#mail"             x="1248" y="0" fill="#fff" />
    <use xlink:href="#clock"            x="1272" y="0" fill="#fff" />
    <use xlink:href="#filedrop"         x="1296" y="0" fill="#fff" />
    <use xlink:href="#move"             x="1320" y="0" fill="#fff" />
    <use xlink:href="#description"      x="1344" y="0" fill="#fff" />
    <use xlink:href="#folder_copy"      x="1368" y="0" fill="#fff" />
    <use xlink:href="#folder_remove"    x="1392" y="0" fill="#fff" />
    <use xlink:href="#view"             x="1416" y="0" fill="#fff" />
    <use xlink:href="#file_copy"        x="1440" y="0" fill="#fff" />
    <use xlink:href="#update"           x="1464" y="0" fill="#fff" />
    <use xlink:href="#users"            x="1488" y="0" fill="#fff" />
    <use xlink:href="#edit_file"        x="1512" y="0" fill="#fff" />
    <use xlink:href="#rename"           x="1536" y="0" fill="#fff" />
    <use xlink:href="#restore"          x="1560" y="0" fill="#fff" />
    <use xlink:href="#edit_avatar"      x="1584" y="0" fill="#fff" />
    <use xlink:href="#unfollow"         x="1608" y="0" fill="#fff" />
    <use xlink:href="#arrow_right"      x="1632" y="0" fill="#fff" />
</svg>
